HIERARCHY
ROOT Character1_Hips
{
	OFFSET 0.000000 86.858185 1.182688
	CHANNELS 6 Xposition Yposition Zposition Xrotation Yrotation Zrotation
	JOINT Character1_LeftUpLeg
	{
		OFFSET 7.276832 -6.057800 0.207883
		CHANNELS 6 Xposition Yposition Zposition Xrotation Yrotation Zrotation
		JOINT Character1_LeftLeg
		{
			OFFSET -1.823140 -35.110466 -1.568847
			CHANNELS 6 Xposition Yposition Zposition Xrotation Yrotation Zrotation
			JOINT Character1_LeftFoot
			{
				OFFSET -1.031196 -37.817070 -1.726818
				CHANNELS 6 Xposition Yposition Zposition Xrotation Yrotation Zrotation
				JOINT Character1_LeftToeBase
				{
					OFFSET 0.202457 -5.287532 8.122427
					CHANNELS 6 Xposition Yposition Zposition Xrotation Yrotation Zrotation
					End Site
					{
						OFFSET 0.009223 0.000047 9.693953
					}
				}
			}
		}
	}
	JOINT Character1_RightUpLeg
	{
		OFFSET -7.276832 -6.057770 0.207879
		CHANNELS 6 Xposition Yposition Zposition Xrotation Yrotation Zrotation
		JOINT Character1_RightLeg
		{
			OFFSET 1.823196 -35.109627 -1.587624
			CHANNELS 6 Xposition Yposition Zposition Xrotation Yrotation Zrotation
			JOINT Character1_RightFoot
			{
				OFFSET 1.031267 -37.817833 -1.710079
				CHANNELS 6 Xposition Yposition Zposition Xrotation Yrotation Zrotation
				JOINT Character1_RightToeBase
				{
					OFFSET -0.202449 -5.287759 8.122276
					CHANNELS 6 Xposition Yposition Zposition Xrotation Yrotation Zrotation
					End Site
					{
						OFFSET 0.001154 -0.000006 9.693956
					}
				}
			}
		}
	}
	JOINT Character1_Spine
	{
		OFFSET -0.000001 2.271347 0.818150
		CHANNELS 6 Xposition Yposition Zposition Xrotation Yrotation Zrotation
		JOINT Character1_Spine1
		{
			OFFSET -0.000001 9.085945 0.955446
			CHANNELS 6 Xposition Yposition Zposition Xrotation Yrotation Zrotation
			JOINT Character1_Spine2
			{
				OFFSET -0.000002 8.765564 -0.142866
				CHANNELS 6 Xposition Yposition Zposition Xrotation Yrotation Zrotation
				JOINT Character1_LeftShoulder
				{
					OFFSET 4.211487 11.612236 -3.873799
					CHANNELS 6 Xposition Yposition Zposition Xrotation Yrotation Zrotation
					JOINT Character1_LeftArm
					{
						OFFSET 5.543700 0.000031 -0.000005
						CHANNELS 6 Xposition Yposition Zposition Xrotation Yrotation Zrotation
						JOINT Character1_LeftForeArm
						{
							OFFSET 23.377409 -0.123474 0.033367
							CHANNELS 6 Xposition Yposition Zposition Xrotation Yrotation Zrotation
							JOINT Character1_LeftHand
							{
								OFFSET 16.247719 -0.118858 0.035829
								CHANNELS 6 Xposition Yposition Zposition Xrotation Yrotation Zrotation
								JOINT Character1_LeftHandThumb1
								{
									OFFSET 2.510399 -0.904045 2.091601
									CHANNELS 6 Xposition Yposition Zposition Xrotation Yrotation Zrotation
									JOINT Character1_LeftHandThumb2
									{
										OFFSET 2.570465 -1.130470 1.584520
										CHANNELS 6 Xposition Yposition Zposition Xrotation Yrotation Zrotation
										JOINT Character1_LeftHandThumb3
										{
											OFFSET 1.420841 -0.605858 0.842600
											CHANNELS 6 Xposition Yposition Zposition Xrotation Yrotation Zrotation
											JOINT Character1_LeftHandThumb4
											{
												OFFSET 2.153469 -0.757797 1.312965
												CHANNELS 6 Xposition Yposition Zposition Xrotation Yrotation Zrotation
												End Site
												{
													OFFSET 2.158772 -0.733734 1.317914
												}
											}
										}
									}
								}
								JOINT Character1_LeftHandIndex1
								{
									OFFSET 8.043888 0.989311 2.480770
									CHANNELS 6 Xposition Yposition Zposition Xrotation Yrotation Zrotation
									JOINT Character1_LeftHandIndex2
									{
										OFFSET 2.427021 0.011856 0.268371
										CHANNELS 6 Xposition Yposition Zposition Xrotation Yrotation Zrotation
										JOINT Character1_LeftHandIndex3
										{
											OFFSET 1.609932 0.007866 0.037315
											CHANNELS 6 Xposition Yposition Zposition Xrotation Yrotation Zrotation
											JOINT Character1_LeftHandIndex4
											{
												OFFSET 2.130016 0.049431 0.114431
												CHANNELS 6 Xposition Yposition Zposition Xrotation Yrotation Zrotation
												End Site
												{
													OFFSET 2.119099 0.211617 -0.131005
												}
											}
										}
									}
								}
								JOINT Character1_LeftHandMiddle1
								{
									OFFSET 8.038177 1.007423 0.439338
									CHANNELS 6 Xposition Yposition Zposition Xrotation Yrotation Zrotation
									JOINT Character1_LeftHandMiddle2
									{
										OFFSET 2.527046 -0.234444 -0.080977
										CHANNELS 6 Xposition Yposition Zposition Xrotation Yrotation Zrotation
										JOINT Character1_LeftHandMiddle3
										{
											OFFSET 1.931313 -0.179352 -0.117768
											CHANNELS 6 Xposition Yposition Zposition Xrotation Yrotation Zrotation
											JOINT Character1_LeftHandMiddle4
											{
												OFFSET 2.196999 0.041229 -0.161456
												CHANNELS 6 Xposition Yposition Zposition Xrotation Yrotation Zrotation
												End Site
												{
													OFFSET 2.197571 -0.071640 -0.141814
												}
											}
										}
									}
								}
								JOINT Character1_LeftHandRing1
								{
									OFFSET 7.662090 0.616508 -1.366725
									CHANNELS 6 Xposition Yposition Zposition Xrotation Yrotation Zrotation
									JOINT Character1_LeftHandRing2
									{
										OFFSET 2.249855 -0.592636 -0.461933
										CHANNELS 6 Xposition Yposition Zposition Xrotation Yrotation Zrotation
										JOINT Character1_LeftHandRing3
										{
											OFFSET 1.521790 -0.400856 -0.248318
											CHANNELS 6 Xposition Yposition Zposition Xrotation Yrotation Zrotation
											JOINT Character1_LeftHandRing4
											{
												OFFSET 2.446365 -0.396080 -0.528466
												CHANNELS 6 Xposition Yposition Zposition Xrotation Yrotation Zrotation
												End Site
												{
													OFFSET 2.437840 -0.527443 -0.446790
												}
											}
										}
									}
								}
								JOINT Character1_LeftHandPinky1
								{
									OFFSET 6.585136 -0.139000 -2.766160
									CHANNELS 6 Xposition Yposition Zposition Xrotation Yrotation Zrotation
									JOINT Character1_LeftHandPinky2
									{
										OFFSET 1.631428 -0.600632 -0.502815
										CHANNELS 6 Xposition Yposition Zposition Xrotation Yrotation Zrotation
										JOINT Character1_LeftHandPinky3
										{
											OFFSET 1.227242 -0.468956 -0.457904
											CHANNELS 6 Xposition Yposition Zposition Xrotation Yrotation Zrotation
											JOINT Character1_LeftHandPinky4
											{
												OFFSET 1.696033 -0.584229 -0.687828
												CHANNELS 6 Xposition Yposition Zposition Xrotation Yrotation Zrotation
												End Site
												{
													OFFSET 1.705387 -0.567787 -0.678411
												}
											}
										}
									}
								}
							}
						}
					}
				}
				JOINT Character1_RightShoulder
				{
					OFFSET -4.211487 11.612236 -3.873799
					CHANNELS 6 Xposition Yposition Zposition Xrotation Yrotation Zrotation
					JOINT Character1_RightArm
					{
						OFFSET -5.543744 0.000023 -0.000004
						CHANNELS 6 Xposition Yposition Zposition Xrotation Yrotation Zrotation
						JOINT Character1_RightForeArm
						{
							OFFSET -23.377581 -0.123566 0.033386
							CHANNELS 6 Xposition Yposition Zposition Xrotation Yrotation Zrotation
							JOINT Character1_RightHand
							{
								OFFSET -16.247574 -0.118851 0.036247
								CHANNELS 6 Xposition Yposition Zposition Xrotation Yrotation Zrotation
								JOINT Character1_RightHandThumb1
								{
									OFFSET -2.510384 -0.904091 2.091566
									CHANNELS 6 Xposition Yposition Zposition Xrotation Yrotation Zrotation
									JOINT Character1_RightHandThumb2
									{
										OFFSET -2.579426 -1.121681 1.537416
										CHANNELS 6 Xposition Yposition Zposition Xrotation Yrotation Zrotation
										JOINT Character1_RightHandThumb3
										{
											OFFSET -1.429546 -0.616760 0.819528
											CHANNELS 6 Xposition Yposition Zposition Xrotation Yrotation Zrotation
											JOINT Character1_RightHandThumb4
											{
												OFFSET -2.167622 -0.774658 1.279505
												CHANNELS 6 Xposition Yposition Zposition Xrotation Yrotation Zrotation
												End Site
												{
													OFFSET -2.137974 -0.606712 1.413074
												}
											}
										}
									}
								}
								JOINT Character1_RightHandIndex1
								{
									OFFSET -8.043800 0.988876 2.481294
									CHANNELS 6 Xposition Yposition Zposition Xrotation Yrotation Zrotation
									JOINT Character1_RightHandIndex2
									{
										OFFSET -2.426987 0.011948 0.268470
										CHANNELS 6 Xposition Yposition Zposition Xrotation Yrotation Zrotation
										JOINT Character1_RightHandIndex3
										{
											OFFSET -1.609989 0.007927 0.037374
											CHANNELS 6 Xposition Yposition Zposition Xrotation Yrotation Zrotation
											JOINT Character1_RightHandIndex4
											{
												OFFSET -2.129982 0.049034 0.114512
												CHANNELS 6 Xposition Yposition Zposition Xrotation Yrotation Zrotation
												End Site
												{
													OFFSET -2.123772 0.204735 0.006035
												}
											}
										}
									}
								}
								JOINT Character1_RightHandMiddle1
								{
									OFFSET -8.038174 1.006859 0.439860
									CHANNELS 6 Xposition Yposition Zposition Xrotation Yrotation Zrotation
									JOINT Character1_RightHandMiddle2
									{
										OFFSET -2.526997 -0.234062 -0.080875
										CHANNELS 6 Xposition Yposition Zposition Xrotation Yrotation Zrotation
										JOINT Character1_RightHandMiddle3
										{
											OFFSET -1.931465 -0.179070 -0.117694
											CHANNELS 6 Xposition Yposition Zposition Xrotation Yrotation Zrotation
											JOINT Character1_RightHandMiddle4
											{
												OFFSET -2.196987 0.042816 -0.161370
												CHANNELS 6 Xposition Yposition Zposition Xrotation Yrotation Zrotation
												End Site
												{
													OFFSET -2.184029 -0.187660 -0.222307
												}
											}
										}
									}
								}
								JOINT Character1_RightHandRing1
								{
									OFFSET -7.662136 0.615837 -1.366219
									CHANNELS 6 Xposition Yposition Zposition Xrotation Yrotation Zrotation
									JOINT Character1_RightHandRing2
									{
										OFFSET -2.249901 -0.592049 -0.461829
										CHANNELS 6 Xposition Yposition Zposition Xrotation Yrotation Zrotation
										JOINT Character1_RightHandRing3
										{
											OFFSET -1.521889 -0.400475 -0.248259
											CHANNELS 6 Xposition Yposition Zposition Xrotation Yrotation Zrotation
											JOINT Character1_RightHandRing4
											{
												OFFSET -2.446423 -0.395401 -0.528361
												CHANNELS 6 Xposition Yposition Zposition Xrotation Yrotation Zrotation
												End Site
												{
													OFFSET -2.430859 -0.503899 -0.507441
												}
											}
										}
									}
								}
								JOINT Character1_RightHandPinky1
								{
									OFFSET -6.585262 -0.139153 -2.765680
									CHANNELS 6 Xposition Yposition Zposition Xrotation Yrotation Zrotation
									JOINT Character1_RightHandPinky2
									{
										OFFSET -1.631413 -0.601036 -0.502742
										CHANNELS 6 Xposition Yposition Zposition Xrotation Yrotation Zrotation
										JOINT Character1_RightHandPinky3
										{
											OFFSET -1.227207 -0.469040 -0.457860
											CHANNELS 6 Xposition Yposition Zposition Xrotation Yrotation Zrotation
											JOINT Character1_RightHandPinky4
											{
												OFFSET -1.696110 -0.584045 -0.687750
												CHANNELS 6 Xposition Yposition Zposition Xrotation Yrotation Zrotation
												End Site
												{
													OFFSET -1.689350 -0.584435 -0.703875
												}
											}
										}
									}
								}
							}
						}
					}
				}
				JOINT Character1_Neck
				{
					OFFSET -0.000001 15.167763 -4.080687
					CHANNELS 6 Xposition Yposition Zposition Xrotation Yrotation Zrotation
					JOINT Character1_Head
					{
						OFFSET -0.000001 7.825302 -0.202157
						CHANNELS 6 Xposition Yposition Zposition Xrotation Yrotation Zrotation
						End Site
						{
							OFFSET -0.242856 15.320236 -2.107584
						}
					}
				}
				JOINT J_R_Mune_00
				{
					OFFSET -2.925001 2.684891 0.061887
					CHANNELS 6 Xposition Yposition Zposition Xrotation Yrotation Zrotation
					JOINT J_R_Mune_01
					{
						OFFSET -7.794388 2.801010 16.635391
						CHANNELS 6 Xposition Yposition Zposition Xrotation Yrotation Zrotation
						JOINT J_R_Mune_02
						{
							OFFSET 6.838630 -2.377007 -14.605499
							CHANNELS 6 Xposition Yposition Zposition Xrotation Yrotation Zrotation
							End Site
							{
								OFFSET -14.795670 -0.834061 -6.791919
							}
						}
					}
				}
				JOINT J_L_Mune_00
				{
					OFFSET 2.925019 2.684776 0.061883
					CHANNELS 6 Xposition Yposition Zposition Xrotation Yrotation Zrotation
					JOINT J_L_Mune_01
					{
						OFFSET 7.794374 2.801254 16.635433
						CHANNELS 6 Xposition Yposition Zposition Xrotation Yrotation Zrotation
						JOINT J_L_Mune_02
						{
							OFFSET -6.838619 -2.376648 -14.605538
							CHANNELS 3 Xrotation Yrotation Zrotation
							End Site
							{
								OFFSET 14.795649 -0.834076 -6.791907
							}
						}
					}
				}
			}
		}
	}
}
MOTION
Frames: 3
Frame Time: 0.033333
4.906136 83.168785 -5.776153 -1.595452 -0.610453 -5.033693 7.276831 -6.057802 0.207886 -18.790422 -15.824123 6.429451 -1.823138 -35.110462 -1.568851 40.305896 0.191895 2.190273 -1.031193 -37.817074 -1.726819 -18.902480 2.396192 -8.743957 0.202457 -5.287532 8.122426 0.000004 0.000172 -0.013394 -7.276830 -6.057775 0.207878 -22.272992 19.143671 -0.406073 1.823196 -35.109612 -1.587614 27.870583 -8.966659 0.919011 1.031264 -37.817825 -1.710081 -4.313392 -1.178538 12.753170 -0.202449 -5.287759 8.122277 0.000040 -0.000172 -0.222290 -0.000000 2.271348 0.818148 9.955814 0.643202 4.351852 -0.000001 9.085947 0.955444 23.695238 -1.004348 5.090741 -0.000002 8.765558 -0.142877 30.947973 0.943175 3.607066 4.211488 11.612239 -3.873792 -7.822048 12.654502 1.584146 5.543699 0.000030 -0.000003 -9.918759 -19.812721 19.710924 23.377407 -0.123486 0.033378 76.366617 -62.610179 146.490810 16.247717 -0.118852 0.035826 23.103595 6.054315 4.887033 2.510403 -0.904057 2.091598 -2.632356 -14.957266 -0.149682 2.570470 -1.130485 1.584524 1.043579 2.644855 0.605400 1.420850 -0.605859 0.842593 2.507193 10.764173 1.576947 2.153465 -0.757811 1.312963 -0.000523 0.000956 -0.006175 8.043886 0.989299 2.480767 5.359424 1.907050 10.257938 2.427018 0.011862 0.268376 0.215012 -0.005943 -9.267547 1.609945 0.007861 0.037305 0.823743 0.410895 -15.295543 2.130014 0.049424 0.114428 -0.003301 -0.004212 -0.001155 8.038180 1.007432 0.439328 15.307470 6.851625 3.917334 2.527050 -0.234450 -0.080965 -0.618667 0.100525 -11.020789 1.931317 -0.179328 -0.117774 -1.469205 0.642908 -20.914244 2.196997 0.041224 -0.161472 -0.002978 -0.003677 0.001036 7.662096 0.616499 -1.366736 -3.775607 13.612685 11.967562 2.249877 -0.592641 -0.461932 1.334102 0.660037 -13.838417 1.521794 -0.400849 -0.248305 -4.598675 2.547144 -10.553618 2.446374 -0.396070 -0.528478 -0.003630 -0.001472 0.001022 6.585138 -0.139015 -2.766167 -1.526452 18.756963 14.447008 1.631419 -0.600615 -0.502821 -3.870513 -0.838593 -10.818570 1.227247 -0.468958 -0.457908 -6.024314 0.646879 -15.514307 1.696036 -0.584257 -0.687832 -0.000529 -2.561491 -0.000374 -4.211485 11.612240 -3.873796 -25.821950 -5.963123 -16.040648 -5.543744 0.000016 -0.000011 13.907180 20.623440 -13.707091 -23.377588 -0.123578 0.033377 -91.753401 116.211803 14.974759 -16.247572 -0.118840 0.036239 14.405975 -9.867322 -14.225320 -2.510376 -0.904098 2.091562 10.525089 21.523229 1.835373 -2.579434 -1.121679 1.537407 1.041928 -2.603756 -0.575562 -1.429542 -0.616769 0.819536 3.202989 -13.292573 -1.839871 -2.167622 -0.774658 1.279515 0.009816 0.003722 -0.006620 -8.043802 0.988878 2.481302 12.422594 1.168524 -1.549048 -2.426998 0.011954 0.268466 -0.253126 0.039714 14.317439 -1.609997 0.007926 0.037386 -0.729406 0.143203 -8.584672 -2.129976 0.049054 0.114507 -0.001246 -0.008651 0.004698 -8.038171 1.006850 0.439876 -0.243053 -1.370995 -15.171076 -2.526977 -0.234048 -0.080869 0.656748 -0.057789 17.915234 -1.931447 -0.179067 -0.117691 -0.075365 -0.845989 28.145545 -2.196990 0.042793 -0.161368 -0.000497 -0.002467 10.532896 -7.662133 0.615841 -1.366207 -15.864001 -2.504268 -22.133940 -2.249900 -0.592047 -0.461828 3.210884 -0.079859 2.729547 -1.521877 -0.400475 -0.248252 0.734527 -0.357886 18.715830 -2.446430 -0.395392 -0.528366 0.005173 0.001333 0.007287 -6.585262 -0.139148 -2.765675 2.089992 -10.068658 -17.843075 -1.631422 -0.601029 -0.502744 0.204936 0.077770 -0.628586 -1.227192 -0.469047 -0.457852 -5.707243 -5.743307 18.566302 -1.696118 -0.584048 -0.687748 0.005146 0.004146 -0.005859 0.000001 15.167757 -4.080661 -34.595465 2.870799 2.740003 0.000001 7.825308 -0.202172 -27.067645 3.921774 3.206311 -2.925000 2.684891 0.061888 -0.000001 -0.000000 0.000000 -7.794384 2.801011 16.635397 -0.000001 0.000001 0.000001 6.838627 -2.377006 -14.605504 -0.000004 0.000000 0.000001 2.925021 2.684792 0.061881 0.000001 0.000002 0.000000 7.794370 2.801254 16.635418 0.000000 -0.000000 -0.000001 0.000001 0.000000 -0.000001 
4.907824 83.159767 -5.811535 -1.593390 -0.655228 -5.046786 7.276831 -6.057799 0.207883 -18.822393 -15.937756 6.433970 -1.823140 -35.110466 -1.568851 40.352918 0.244611 2.145172 -1.031193 -37.817070 -1.726821 -18.908207 2.399989 -8.758526 0.202453 -5.287532 8.122427 0.000000 0.000141 -0.013353 -7.276830 -6.057781 0.207881 -22.327502 19.118968 -0.391557 1.823194 -35.109619 -1.587617 27.880918 -8.902494 0.918969 1.031263 -37.817829 -1.710083 -4.288708 -1.175152 12.746363 -0.202450 -5.287759 8.122277 0.000071 -0.000205 -0.222279 0.000000 2.271334 0.818148 9.984885 0.670558 4.367219 -0.000002 9.085958 0.955448 23.776085 -1.003243 5.106265 -0.000003 8.765565 -0.142863 31.029416 0.945816 3.614601 4.211486 11.612240 -3.873787 -7.822011 12.654519 1.584041 5.543707 0.000019 0.000009 -9.928095 -19.795329 19.732195 23.377419 -0.123467 0.033376 79.087136 -62.624727 149.330106 16.247721 -0.118852 0.035820 25.869842 2.347062 5.427838 2.510395 -0.904060 2.091607 -2.632407 -14.957295 -0.149746 2.570461 -1.130481 1.584525 1.043709 2.644878 0.605452 1.420848 -0.605871 0.842599 2.507107 10.764231 1.576948 2.153478 -0.757795 1.312954 -0.000470 0.000958 -0.006176 8.043893 0.989317 2.480763 5.359499 1.907058 10.257979 2.427010 0.011863 0.268370 0.214937 -0.005951 -9.267548 1.609941 0.007866 0.037305 0.823661 0.410870 -15.295543 2.130019 0.049440 0.114446 -0.003270 -0.004233 -0.001123 8.038170 1.007440 0.439339 15.307526 6.851692 3.917352 2.527062 -0.234458 -0.080972 -0.618669 0.100449 -11.020823 1.931317 -0.179345 -0.117766 -1.469331 0.642900 -20.914292 2.197001 0.041206 -0.161461 -0.003038 -0.003636 0.001026 7.662092 0.616500 -1.366738 -3.775566 13.612628 11.967598 2.249869 -0.592643 -0.461933 1.334071 0.660235 -13.838469 1.521792 -0.400856 -0.248317 -4.598637 2.547042 -10.553590 2.446358 -0.396081 -0.528467 -0.003638 -0.001432 0.001031 6.585134 -0.138997 -2.766165 -1.526418 18.757057 14.447047 1.631438 -0.600632 -0.502830 -3.870585 -0.838566 -10.818566 1.227250 -0.468961 -0.457902 -6.024162 0.646792 -15.514269 1.696021 -0.584246 -0.687832 -0.000613 -2.561391 -0.000403 -4.211489 11.612246 -3.873791 -25.821984 -5.963074 -16.040730 -5.543748 -0.000005 -0.000015 13.904593 20.638436 -13.753190 -23.377592 -0.123558 0.033382 -89.979498 116.523246 13.009902 -16.247583 -0.118867 0.036239 16.405650 -5.413575 -13.422355 -2.510389 -0.904097 2.091570 10.525110 21.523217 1.835391 -2.579428 -1.121686 1.537414 1.041921 -2.603736 -0.575565 -1.429547 -0.616763 0.819534 3.203055 -13.292598 -1.839896 -2.167625 -0.774648 1.279528 0.009784 0.003744 -0.006603 -8.043808 0.988871 2.481307 12.422614 1.168542 -1.549030 -2.426990 0.011954 0.268478 -0.253158 0.039709 14.317460 -1.609994 0.007910 0.037376 -0.729407 0.143161 -8.584649 -2.129975 0.049048 0.114505 -0.001203 -0.008606 0.004651 -8.038175 1.006843 0.439876 -0.243054 -1.371046 -15.171056 -2.527011 -0.234059 -0.080863 0.656741 -0.057855 17.915234 -1.931471 -0.179050 -0.117690 -0.075328 -0.845909 28.145531 -2.196983 0.042822 -0.161374 -0.000493 -0.002571 10.532900 -7.662135 0.615829 -1.366208 -15.864028 -2.504293 -22.133930 -2.249902 -0.592043 -0.461823 3.210889 -0.079793 2.729520 -1.521879 -0.400457 -0.248250 0.734612 -0.357772 18.715806 -2.446418 -0.395392 -0.528375 0.005150 0.001272 0.007288 -6.585260 -0.139164 -2.765666 2.089930 -10.068634 -17.843034 -1.631425 -0.601031 -0.502744 0.204966 0.077725 -0.628607 -1.227222 -0.469038 -0.457860 -5.707154 -5.743127 18.566249 -1.696117 -0.584062 -0.687736 0.005128 0.003923 -0.005956 -0.000002 15.167765 -4.080673 -34.719453 2.873914 2.771474 0.000001 7.825300 -0.202160 -27.067686 3.921807 3.206310 -2.925003 2.684891 0.061891 -0.000000 0.000002 0.000001 -7.794391 2.800994 16.635391 0.000002 -0.000001 0.000000 6.838629 -2.376999 -14.605509 0.000004 0.000000 -0.000001 2.925017 2.684792 0.061885 0.000001 0.000002 -0.000001 7.794374 2.801254 16.635433 0.000002 -0.000000 -0.000001 0.000002 0.000006 -0.000000 
4.909317 83.148499 -5.845524 -1.591413 -0.698392 -5.059557 7.276834 -6.057822 0.207883 -18.858683 -16.051713 6.438703 -1.823141 -35.110470 -1.568850 40.409691 0.296335 2.096788 -1.031194 -37.817066 -1.726821 -18.919382 2.404009 -8.771217 0.202457 -5.287531 8.122426 -0.000003 0.000117 -0.013410 -7.276831 -6.057785 0.207880 -22.389418 19.093053 -0.375419 1.823200 -35.109627 -1.587622 27.907938 -8.837975 0.919275 1.031262 -37.817825 -1.710082 -4.273015 -1.172152 12.740750 -0.202448 -5.287758 8.122277 0.000069 -0.000183 -0.222304 -0.000001 2.271332 0.818148 10.012957 0.696909 4.381884 -0.000001 9.085936 0.955447 23.854007 -1.002108 5.121313 -0.000002 8.765582 -0.142868 31.108134 0.948344 3.621777 4.211490 11.612250 -3.873807 -7.822073 12.654515 1.584110 5.543705 0.000035 -0.000004 -9.904916 -19.688760 19.142288 23.377401 -0.123475 0.033354 71.536649 -62.414241 141.864081 16.247721 -0.118859 0.035823 20.890583 -0.988590 5.661192 2.510398 -0.904064 2.091611 -2.632267 -14.957288 -0.149699 2.570470 -1.130472 1.584519 1.043541 2.644906 0.605433 1.420849 -0.605861 0.842599 2.507133 10.764188 1.576944 2.153468 -0.757795 1.312956 -0.000440 0.001007 -0.006182 8.043886 0.989298 2.480778 5.359582 1.907104 10.257977 2.427020 0.011859 0.268379 0.214897 -0.005931 -9.267572 1.609944 0.007866 0.037296 0.823672 0.410912 -15.295577 2.130018 0.049418 0.114442 -0.003213 -0.004299 -0.001053 8.038170 1.007417 0.439347 15.307472 6.851683 3.917335 2.527046 -0.234450 -0.080967 -0.618621 0.100495 -11.020798 1.931322 -0.179353 -0.117768 -1.469252 0.642850 -20.914193 2.196999 0.041218 -0.161467 -0.003071 -0.003683 0.001038 7.662088 0.616503 -1.366724 -3.775512 13.612673 11.967561 2.249851 -0.592651 -0.461912 1.333966 0.660275 -13.838511 1.521785 -0.400846 -0.248322 -4.598721 2.547065 -10.553565 2.446365 -0.396074 -0.528471 -0.003592 -0.001468 0.001049 6.585131 -0.139009 -2.766150 -1.526504 18.757042 14.447030 1.631428 -0.600640 -0.502825 -3.870553 -0.838587 -10.818550 1.227235 -0.468960 -0.457895 -6.024141 0.646790 -15.514295 1.696026 -0.584245 -0.687832 -0.000664 -2.561366 -0.000435 -4.211487 11.612248 -3.873809 -25.822029 -5.963077 -16.040667 -5.543744 -0.000001 -0.000005 14.092517 20.647626 -12.741230 -23.377586 -0.123559 0.033383 -95.641117 115.765095 17.999193 -16.247574 -0.118843 0.036240 13.890067 -1.410623 -13.685893 -2.510387 -0.904097 2.091559 10.525039 21.523174 1.835441 -2.579426 -1.121679 1.537425 1.042075 -2.603679 -0.575585 -1.429546 -0.616763 0.819535 3.202934 -13.292634 -1.839911 -2.167629 -0.774646 1.279513 0.009654 0.003731 -0.006539 -8.043806 0.988866 2.481294 12.422561 1.168526 -1.549020 -2.426992 0.011952 0.268471 -0.253077 0.039775 14.317428 -1.609993 0.007937 0.037379 -0.729479 0.143161 -8.584663 -2.129970 0.049041 0.114505 -0.001123 -0.008618 0.004661 -8.038179 1.006850 0.439865 -0.243103 -1.371063 -15.171044 -2.527004 -0.234064 -0.080871 0.656845 -0.057801 17.915164 -1.931452 -0.179079 -0.117674 -0.075370 -0.845921 28.145540 -2.196996 0.042835 -0.161377 -0.000489 -0.002534 10.532895 -7.662136 0.615831 -1.366216 -15.864065 -2.504281 -22.133954 -2.249898 -0.592055 -0.461829 3.210942 -0.079813 2.729518 -1.521890 -0.400480 -0.248255 0.734579 -0.357793 18.715823 -2.446428 -0.395387 -0.528364 0.005179 0.001281 0.007293 -6.585262 -0.139163 -2.765688 2.089969 -10.068552 -17.843079 -1.631430 -0.601055 -0.502749 0.204860 0.077654 -0.628522 -1.227206 -0.469040 -0.457850 -5.707085 -5.743131 18.566237 -1.696105 -0.584041 -0.687748 0.005068 0.003866 -0.005925 -0.000000 15.167773 -4.080685 -34.839354 2.876677 2.802095 -0.000002 7.825313 -0.202170 -27.067457 3.921824 3.206260 -2.924999 2.684891 0.061868 -0.000004 0.000002 0.000000 -7.794386 2.801010 16.635384 0.000003 0.000001 0.000000 6.838626 -2.377006 -14.605497 -0.000002 0.000003 0.000001 2.925020 2.684792 0.061873 -0.000001 0.000004 -0.000001 7.794371 2.801263 16.635418 -0.000004 0.000002 0.000000 -0.000000 0.000004 -0.000001 
